<svg width="110" height="120" viewBox="0 0 110 120" fill="none" xmlns="http://www.w3.org/2000/svg">
<path fill-rule="evenodd" clip-rule="evenodd" d="M40 20C51.0457 20 60 28.9543 60 40V80C60 85.5229 64.4771 90 70 90C75.5229 90 80 85.5229 80 80V40C80 17.9086 62.0914 -2.62268e-06 40 0C17.9086 1.93129e-06 -1.93129e-06 17.9086 0 40V80C0 85.5229 4.47715 90 10 90C15.5228 90 20 85.5229 20 80L20 40C20 28.9543 28.9543 20 40 20ZM70 100C58.9543 100 50 91.0457 50 80V40C50 34.4771 45.5228 30 40 30C34.4772 30 30 34.4771 30 40V80C30 102.091 47.9086 120 70 120C92.0914 120 110 102.091 110 80V40C110 34.4771 105.523 30 100 30C94.4771 30 90 34.4771 90 40V80C90 91.0457 81.0457 100 70 100Z" fill="#0666FF"/>
</svg>
